<svg id="Layer_1" data-name="Layer 1" xmlns="http://www.w3.org/2000/svg" viewBox="0 0 24 24"><defs><style>.cls-1{opacity:0;}.cls-2{fill:#fff;}.cls-3{fill:#262322;}</style></defs><title>Iconography</title><g class="cls-1"><rect class="cls-2" width="24" height="24"/></g><circle class="cls-3" cx="8.41" cy="7.85" r="0.5"/><circle class="cls-3" cx="8.41" cy="12" r="0.5"/><circle class="cls-3" cx="8.41" cy="16.15" r="0.5"/><rect class="cls-3" x="10.29" y="7.35" width="5.8" height="1"/><rect class="cls-3" x="10.29" y="11.5" width="5.8" height="1"/><rect class="cls-3" x="10.29" y="15.65" width="5.8" height="1"/><path class="cls-3" d="M17.38,20H6.62a1.36,1.36,0,0,1-1.36-1.36V5.36A1.36,1.36,0,0,1,6.62,4H17.38a1.36,1.36,0,0,1,1.36,1.36V18.64A1.36,1.36,0,0,1,17.38,20ZM6.62,5a.36.36,0,0,0-.36.36V18.64a.36.36,0,0,0,.36.36H17.38a.36.36,0,0,0,.36-.36V5.36A.36.36,0,0,0,17.38,5Z" transform="translate(0 0)"/></svg>