<svg id="Layer_3_copy" data-name="Layer 3 copy" xmlns="http://www.w3.org/2000/svg" viewBox="0 0 100 100"><defs><style>.cls-1{fill:#ffdec5;}.cls-2{fill:#111923;}.cls-3{fill:#f7ab94;}</style></defs><title>Artboard 1</title><rect class="cls-1" width="100" height="100"/><path class="cls-2" d="M36.68,33a41.33,41.33,0,0,0-5.37,17.45,118.86,118.86,0,0,0,.07,18.39c.1,1.6.32,3.44,1.65,4.33a2,2,0,0,1,1.18-2.41A8.73,8.73,0,0,0,37,77.35l.18.15,1.09-1.82a.55.55,0,0,1,.25-.27.4.4,0,0,1,.48.27,1.26,1.26,0,0,1,0,.61A5.07,5.07,0,0,0,41.51,81s6.49-1.49,10.2-1.26a82.59,82.59,0,0,1,9.8,1.59,14,14,0,0,0,7.88-7.78l.8,3.62a8.06,8.06,0,0,0,1.29-8.71,2.56,2.56,0,0,1,2.4,2.69C76,68.2,75.59,63.9,75.32,60.29s-2.16-10-3.42-13.35c-2.29-6.18-3.13-8.85-6.19-14.7"/><path class="cls-1" d="M37.45,55.38a1.83,1.83,0,0,1-1.38,1.38,3,3,0,0,1-2.14-.29A4.32,4.32,0,0,1,32.38,55a5.17,5.17,0,0,1-.57-4.73,3.43,3.43,0,0,1,1.13-1.56,2.52,2.52,0,0,1,2-.5,1.79,1.79,0,0,1,1.46,1.27"/><path class="cls-2" d="M37,55.24c-.27,1.41-2.11,1.23-3,.66A4.53,4.53,0,0,1,32,52.84a4.14,4.14,0,0,1,.87-3.41c.72-.78,2.64-1.21,3,.2.15.63,1.12.36,1-.26a2.47,2.47,0,0,0-3.05-1.59,3.8,3.8,0,0,0-2.6,2.76c-.74,2.53.55,5.9,3.24,6.66,1.37.39,3.2-.12,3.5-1.69.12-.63-.85-.9-1-.27Z"/><path class="cls-3" d="M37.28,54.82a3.56,3.56,0,0,1-4.16-2.74,1.76,1.76,0,0,1,.18-1.35A2.28,2.28,0,0,1,35.05,50a2.29,2.29,0,0,1,2,.46A1.92,1.92,0,0,1,37.28,52a4.72,4.72,0,0,0-.11,1.54"/><path class="cls-1" d="M51.31,70.32c-4.83,0-9.8-4.41-12.12-9.47s-3-15.29-.51-22.6a14.38,14.38,0,0,1,12.72-10c3.61,0,10.25,2.67,12.71,10s.48,18.16-1.41,22.85S56.14,70.32,51.31,70.32Z"/><path class="cls-2" d="M51.31,70.82C46,70.82,41,65.91,38.74,61.06c-2.3-5-3.06-15.44-.53-23S47.64,27.78,51.4,27.78s10.66,2.8,13.18,10.31c2.47,7.32.61,18.17-1.41,23.2C61.3,65.91,56.52,70.82,51.31,70.82Zm.09-42c-3.48,0-9.88,2.61-12.24,9.63-2.46,7.31-1.73,17.39.49,22.23,2.09,4.57,6.76,9.18,11.66,9.18s9.19-4.59,10.93-8.91,3.86-15.17,1.4-22.5C61.28,31.39,54.88,28.78,51.4,28.78Z"/><path class="cls-3" d="M40.4,36.35a28.13,28.13,0,0,0,5.93,28.47,10.36,10.36,0,0,0,4.87,3.3c2.85.71,5.91-.69,7.92-2.84a22.47,22.47,0,0,0,4.2-7.7c1.47-3.94,2.79-8.28,1.51-12.29a13.44,13.44,0,0,0-4.51-6.18,20.17,20.17,0,0,0-18.65-3.45"/><path class="cls-2" d="M43,48a5,5,0,0,1,1.64-.18,4.27,4.27,0,0,1,.79.1,2.27,2.27,0,0,1,.34.11.35.35,0,0,1,.17.14s0,.08,0,0,0,.08,0,0,0,.06,0,0l0,0-.06,0h0l-.1,0h0s-.14,0-.07,0-.06,0,0,0h0s0,0,0,0,0-.06,0,0v0s0,0,0,0a.31.31,0,0,1-.07.09c-.06,0-.06,0,0,0h-.07s0,0,0,0h0s-.07,0-.08-.1a.19.19,0,0,1,.06-.18.26.26,0,0,1,.25-.07c.33.43.24.62-.27.58a.5.5,0,0,0,.5-.86.66.66,0,0,0-.79.09.69.69,0,0,0-.16.77.74.74,0,0,0,1.3,0,.87.87,0,0,0-.5-1.23.89.89,0,0,0-1.12.54,1,1,0,0,0,.4,1.17,1.25,1.25,0,0,0,1.29,0,1.12,1.12,0,0,0,.52-1.25A1.49,1.49,0,0,0,45.87,47a5.84,5.84,0,0,0-3.13,0A.5.5,0,0,0,43,48Z"/><path class="cls-2" d="M59.42,47a6,6,0,0,0-2.79-.11,1.8,1.8,0,0,0-1.23.66,1.06,1.06,0,0,0,.1,1.35,1.3,1.3,0,0,0,1.24.37,1,1,0,0,0,.77-1,.9.9,0,0,0-1.79,0,.76.76,0,0,0,1.28.56.67.67,0,0,0-.82-1.05.5.5,0,0,0,.5.86c-.51,0-.6-.15-.27-.58a.19.19,0,0,1,.19,0,.19.19,0,0,1,.12.21c0,.05,0,.06-.08.1s0,0,0,0h-.1c.05,0,.05,0,0,0a.31.31,0,0,1-.07-.09s0,0,0,0,0,0,0,0h0v0c0,.05,0,.05,0,0s0,0,0,0-.06,0-.07,0h0a.37.37,0,0,1-.15,0s0,0,0,0l0,0s0,0,0,0,0-.07,0,0,0,0,0,0a.39.39,0,0,1,.18-.14,1.89,1.89,0,0,1,.31-.1,4.19,4.19,0,0,1,.78-.11,5.17,5.17,0,0,1,1.67.18.5.5,0,0,0,.27-1Z"/><path class="cls-2" d="M40.33,45.14a12.24,12.24,0,0,1,6.56-1.08.51.51,0,0,0,.5-.5.52.52,0,0,0-.5-.5,13.25,13.25,0,0,0-7.07,1.21c-.58.28-.07,1.14.51.87Z"/><path class="cls-2" d="M55.26,44.37a11.55,11.55,0,0,1,6.07.81A.52.52,0,0,0,62,45a.5.5,0,0,0-.18-.68,12.58,12.58,0,0,0-6.58-1,.53.53,0,0,0-.5.5c0,.25.23.54.5.5Z"/><path class="cls-2" d="M50.32,52c-.14,1-.3,2-.44,3a.92.92,0,0,0,.1.63.7.7,0,0,0,.65.31,5.46,5.46,0,0,0,1.21-.28.5.5,0,0,0,.35-.61.5.5,0,0,0-.61-.35c-.31.09-.62.17-.94.24h-.07s.07,0,.08,0a.45.45,0,0,1,.21.26s0-.11,0,0a.43.43,0,0,0,0-.11c0-.16.05-.33.08-.5l.27-1.83.07-.49a.5.5,0,0,0-1-.26Z"/><path class="cls-2" d="M34.64,54.57a.28.28,0,0,1-.17-.07,1.08,1.08,0,0,1-.42-.85c0-.38.39-.6.72-.81s.64-.43.64-.7a.35.35,0,0,0-.12-.28,2.39,2.39,0,0,0-1.51-.18.26.26,0,0,1-.28-.21.24.24,0,0,1,.2-.29,2.83,2.83,0,0,1,1.91.3.81.81,0,0,1,.3.66c0,.56-.48.87-.87,1.12-.23.15-.48.31-.49.45s0,.18.27.43a.24.24,0,0,1,0,.35A.25.25,0,0,1,34.64,54.57Z"/><path class="cls-2" d="M67.93,48.71c-1.24-.82-1-2-1.32-3.48-.48-2.31-.67-5-1.84-7.07a5.19,5.19,0,0,0-4.21-2.32,15.75,15.75,0,0,0-4.94.74c-1.61.41-8,.07-9.72-.1s-8.33,7.63-8.71,9.42-.39,1.42-2,2.29c0,0-5.24-24.61,15.84-24.61S67.93,48.71,67.93,48.71Z"/><path class="cls-3" d="M56.21,73.65a1.91,1.91,0,0,0-.45-.49A4.57,4.57,0,0,0,53.68,72,6.15,6.15,0,0,0,52.2,72,9.2,9.2,0,0,1,46.93,71a6.23,6.23,0,0,1-1.29,3.58,18.93,18.93,0,0,0,9.91.19,1,1,0,0,0,.73-.45A.65.65,0,0,0,56.21,73.65Z"/><path class="cls-1" d="M79.48,102.41a23.22,23.22,0,0,0-6-16.43,29.43,29.43,0,0,0-17.9-9.07c-7.16-.93-14.86.79-20.12,4.78a22.33,22.33,0,0,0-7.6,11A44.92,44.92,0,0,0,26,105.25"/><path class="cls-2" d="M80,102.41a23.88,23.88,0,0,0-5.21-15.63,28.37,28.37,0,0,0-13.43-9.07c-10.52-3.46-23.83-1.24-30.62,8.12-4.1,5.65-5,12.64-5.19,19.42a.5.5,0,0,0,1,0c.2-5.92.84-12,3.91-17.18a21.72,21.72,0,0,1,12.32-9.54C53,75.27,65.1,78,72.59,85.8A23,23,0,0,1,79,102.41c0,.64,1,.64,1,0Z"/><path class="cls-1" d="M41.65,54.44a.5.5,0,0,0,0-1,.5.5,0,0,0,0,1Z"/><path class="cls-1" d="M45.9,54.24a.5.5,0,0,0,0-1,.5.5,0,0,0,0,1Z"/><path class="cls-1" d="M42.87,56.66a.5.5,0,0,0,0-1,.5.5,0,0,0,0,1Z"/><path class="cls-1" d="M60.85,55a.5.5,0,0,0,0-1,.5.5,0,0,0,0,1Z"/><path class="cls-1" d="M57.37,55.35a.5.5,0,0,0,0-1,.5.5,0,0,0,0,1Z"/><path class="cls-1" d="M59,53a.5.5,0,0,0,0-1,.5.5,0,0,0,0,1Z"/><path class="cls-2" d="M64.1,32.82l8.71,21.7s-.17,23.84-4.21,2.13S46.46,36.53,46.46,36.53Z"/><path class="cls-1" d="M44.91,33.32a8.31,8.31,0,0,1-.82-4.83c0-.32-.43-.45-.48-.13a8.92,8.92,0,0,0,.86,5.21c.15.29.58,0,.44-.25Z"/><path class="cls-1" d="M40.37,35.78c-1.49.67-1.9,2.34-2.51,3.7a5,5,0,0,1-3.38,2.87c-.32.07-.19.55.13.48A5.32,5.32,0,0,0,38,40.24c.75-1.37,1-3.31,2.58-4,.29-.14,0-.57-.25-.43Z"/><path class="cls-1" d="M50.81,33a7.77,7.77,0,0,1,6.74,2.56c.22.24.57-.11.36-.36a8.28,8.28,0,0,0-7.1-2.7c-.32,0-.32.54,0,.5Z"/><path class="cls-1" d="M70.11,53.72a7.87,7.87,0,0,0,3,3.05l.12-.46a4.77,4.77,0,0,1-4.3-1.73c-.2-.25-.55.11-.35.36a5.23,5.23,0,0,0,4.65,1.87.25.25,0,0,0,.13-.47,7.36,7.36,0,0,1-2.8-2.87c-.15-.28-.59,0-.43.25Z"/><path class="cls-2" d="M51.25,64.59a9.13,9.13,0,0,0,5.37-4.51c.29-.57-.57-1.08-.86-.5a8.08,8.08,0,0,1-4.78,4c-.61.19-.35,1.16.27,1Z"/></svg>