<svg id="Layer_1" data-name="Layer 1" xmlns="http://www.w3.org/2000/svg" viewBox="0 0 24 24"><defs><style>.cls-1{fill:#262322;}</style></defs><title>Artboard 1</title><path class="cls-1" d="M20,15.55,18.72,11.7a1.57,1.57,0,0,0-1.5-1.07H15.07a3.24,3.24,0,1,0-6.14,0H6.78a1.58,1.58,0,0,0-1.5,1.07L4,15.55a1.58,1.58,0,0,0,1.49,2.08h13A1.58,1.58,0,0,0,20,15.55ZM12,7.38a2.24,2.24,0,0,1,2.24,2.23,2.18,2.18,0,0,1-.5,1.4L12,13.2,10.25,11A2.23,2.23,0,0,1,12,7.38Zm7,9a.57.57,0,0,1-.46.24h-13A.58.58,0,0,1,5,15.87L6.23,12a.57.57,0,0,1,.55-.39H9.47l2,2.48a.72.72,0,0,0,1.12,0l2-2.48h2.69a.57.57,0,0,1,.55.39l1.28,3.85A.58.58,0,0,1,19,16.39Z"/><path class="cls-1" d="M12,10.24a.63.63,0,1,0-.63-.63A.63.63,0,0,0,12,10.24Z"/></svg>