<svg id="Layer_1" data-name="Layer 1" xmlns="http://www.w3.org/2000/svg" viewBox="0 0 24 24"><defs><style>.cls-1{fill:#262322;}</style></defs><title>Artboard 1</title><path class="cls-1" d="M12,5a5.27,5.27,0,0,1,5.26,5.26,5.19,5.19,0,0,1-1.16,3.28L12,18.68,7.9,13.54a5.19,5.19,0,0,1-1.16-3.28A5.27,5.27,0,0,1,12,5m0-1A6.24,6.24,0,0,0,7.12,14.16l4.5,5.66A.51.51,0,0,0,12,20a.47.47,0,0,0,.37-.18l4.51-5.66A6.24,6.24,0,0,0,12,4Z"/><path class="cls-1" d="M12,9.35a.89.89,0,1,1-.89.89A.89.89,0,0,1,12,9.35m0-1a1.89,1.89,0,1,0,1.89,1.89A1.89,1.89,0,0,0,12,8.35Z"/></svg>