<svg id="Layer_1" data-name="Layer 1" xmlns="http://www.w3.org/2000/svg" viewBox="0 0 24 24"><defs><style>.cls-1{opacity:0;}.cls-2{fill:#fff;}.cls-3{fill:#262322;}</style></defs><title>Artboard 1</title><g class="cls-1"><rect class="cls-2" x="2" y="2" width="24" height="24"/></g><path class="cls-3" d="M17.1,20.5H6.9a2.41,2.41,0,0,1-2.4-2.4V5.9A2.41,2.41,0,0,1,6.9,3.5h8.31a2.4,2.4,0,0,1,1.7.7L18.8,6.09a2.4,2.4,0,0,1,.7,1.7V18.1A2.41,2.41,0,0,1,17.1,20.5ZM6.9,4.5A1.4,1.4,0,0,0,5.5,5.9V18.1a1.4,1.4,0,0,0,1.4,1.4H17.1a1.4,1.4,0,0,0,1.4-1.4V7.79a1.39,1.39,0,0,0-.41-1L16.2,4.91a1.39,1.39,0,0,0-1-.41Z"/><path class="cls-3" d="M12,17.5A2.5,2.5,0,1,1,14.5,15,2.5,2.5,0,0,1,12,17.5Zm0-4A1.5,1.5,0,1,0,13.5,15,1.5,1.5,0,0,0,12,13.5Z"/><rect class="cls-3" x="7" y="6" width="6" height="1"/></svg>