<svg id="Layer_1" data-name="Layer 1" xmlns="http://www.w3.org/2000/svg" viewBox="0 0 24 24"><defs><style>.cls-1{opacity:0;}.cls-2{fill:#fff;}.cls-3{fill:#262322;}</style></defs><title>Iconography</title><g class="cls-1"><rect class="cls-2" width="24" height="24"/></g><path class="cls-3" d="M12,20a33,33,0,0,1-7.4-.86,1.91,1.91,0,0,1-1.46-1.86V16a2.47,2.47,0,0,1,.7-1.73l.88-.92a1.4,1.4,0,0,0,.37-.66L7,5.87A2.49,2.49,0,0,1,9.45,4h5.1A2.49,2.49,0,0,1,17,5.87l1.94,6.84a1.4,1.4,0,0,0,.37.66l.88.92a2.49,2.49,0,0,1,.7,1.73v1.25a1.91,1.91,0,0,1-1.46,1.86A33,33,0,0,1,12,20ZM9.45,5A1.5,1.5,0,0,0,8,6.13L6.06,13a2.5,2.5,0,0,1-.62,1.11L4.56,15a1.49,1.49,0,0,0-.42,1v1.25a.89.89,0,0,0,.69.88A31.31,31.31,0,0,0,12,19a31.31,31.31,0,0,0,7.17-.84.89.89,0,0,0,.69-.88V16a1.49,1.49,0,0,0-.42-1l-.88-.91A2.5,2.5,0,0,1,17.94,13L16,6.13A1.5,1.5,0,0,0,14.55,5Z" transform="translate(0 0)"/><path class="cls-3" d="M12,17.27a33,33,0,0,1-6.71-.71l.21-1a31.28,31.28,0,0,0,6.5.69,31.28,31.28,0,0,0,6.5-.69l.21,1A33,33,0,0,1,12,17.27Z" transform="translate(0 0)"/><rect class="cls-3" x="9.45" y="5.84" width="5.1" height="1"/><rect class="cls-3" x="2.88" y="10.71" width="1" height="2"/><rect class="cls-3" x="20.12" y="10.71" width="1" height="2"/></svg>