<svg id="Layer_1" data-name="Layer 1" xmlns="http://www.w3.org/2000/svg" viewBox="0 0 24 24"><defs><style>.cls-1{opacity:0;}.cls-2{fill:#fff;}.cls-3{fill:#262322;}</style></defs><title>Iconography</title><g class="cls-1"><rect class="cls-2" width="24" height="24"/></g><path class="cls-3" d="M18.81,12a2.37,2.37,0,1,0-2.37,2.37A2.37,2.37,0,0,0,18.81,12Zm-3.74,0a1.37,1.37,0,1,1,1.37,1.37A1.37,1.37,0,0,1,15.07,12Z" transform="translate(0 0)"/><path class="cls-3" d="M9.93,17.13A2.37,2.37,0,1,0,7.56,19.5,2.38,2.38,0,0,0,9.93,17.13Zm-3.74,0A1.37,1.37,0,1,1,7.56,18.5,1.37,1.37,0,0,1,6.19,17.13Z" transform="translate(0 0)"/><path class="cls-3" d="M9.93,6.87A2.37,2.37,0,1,0,7.56,9.24,2.38,2.38,0,0,0,9.93,6.87Zm-3.74,0A1.37,1.37,0,1,1,7.56,8.24,1.37,1.37,0,0,1,6.19,6.87Z" transform="translate(0 0)"/><polygon class="cls-3" points="12.69 12.5 12.69 11.5 10.97 11.5 10.08 10.03 9.22 10.55 10.11 12 9.22 13.45 10.08 13.97 10.97 12.5 12.69 12.5"/></svg>