<svg id="Layer_1" data-name="Layer 1" xmlns="http://www.w3.org/2000/svg" viewBox="0 0 400 400"><title>23Artboard 1</title><path d="M134,344.66c134.34,0,207.81-111.3,207.81-207.81,0-3.16-.06-6.31-.21-9.44A148.57,148.57,0,0,0,378,89.59a146,146,0,0,1-41.94,11.5,73.32,73.32,0,0,0,32.11-40.4A146.32,146.32,0,0,1,321.8,78.41,73.1,73.1,0,0,0,197.33,145,207.34,207.34,0,0,1,46.78,68.71a73.11,73.11,0,0,0,22.61,97.51,72.46,72.46,0,0,1-33.08-9.14c0,.31,0,.61,0,.94a73.07,73.07,0,0,0,58.6,71.6,72.83,72.83,0,0,1-33,1.25,73.1,73.1,0,0,0,68.23,50.73,146.6,146.6,0,0,1-90.72,31.27,149.66,149.66,0,0,1-17.42-1,206.84,206.84,0,0,0,112,32.8"/></svg>